REM DIRINDEX 1\5,1\2\6,1\2\7,1\3\8,1\3\9,1\4\10,1\4\11,1\4\12
REM DIRNAME folder01,folder02,folder03,folder04,folder05,folder06,folder07,folder08,folder09,folder10,folder11,folder12
TITLE ""
FILE "EJ_DB3000_5th_5C_03.mp3" MP3
  TRACK 01 AUDIO
    TITLE "0:"
    INDEX 01 00:00:00
  TRACK 02 AUDIO
    TITLE "9:cjc026_05635"
    INDEX 01 00:00:05
  TRACK 03 AUDIO
    TITLE "0:"
    INDEX 01 00:00:64
  TRACK 04 AUDIO
    TITLE "8:cjc026_05636"
    INDEX 01 00:01:17
  TRACK 05 AUDIO
    TITLE "0:"
    INDEX 01 00:02:08
  TRACK 06 AUDIO
    TITLE "9:cjc026_05637"
    INDEX 01 00:02:34
  TRACK 07 AUDIO
    TITLE "0:"
    INDEX 01 00:03:29
  TRACK 08 AUDIO
    TITLE "8:cjc026_05638"
    INDEX 01 00:03:55
  TRACK 09 AUDIO
    TITLE "0:"
    INDEX 01 00:04:50
  TRACK 10 AUDIO
    TITLE "9:cjc026_05639"
    INDEX 01 00:05:03
  TRACK 11 AUDIO
    TITLE "0:"
    INDEX 01 00:06:02
  TRACK 12 AUDIO
    TITLE "8:cjc026_05640"
    INDEX 01 00:06:26
  TRACK 13 AUDIO
    TITLE "0:"
    INDEX 01 00:07:27
  TRACK 14 AUDIO
    TITLE "9:cjc026_05641"
    INDEX 01 00:07:52
  TRACK 15 AUDIO
    TITLE "0:"
    INDEX 01 00:08:52
  TRACK 16 AUDIO
    TITLE "8:cjc026_05642"
    INDEX 01 00:09:02
  TRACK 17 AUDIO
    TITLE "0:"
    INDEX 01 00:10:02
  TRACK 18 AUDIO
    TITLE "9:cjc026_05643"
    INDEX 01 00:10:27
  TRACK 19 AUDIO
    TITLE "0:"
    INDEX 01 00:11:21
  TRACK 20 AUDIO
    TITLE "8:cjc026_05644"
    INDEX 01 00:11:48
  TRACK 21 AUDIO
    TITLE "0:"
    INDEX 01 00:12:52
  TRACK 22 AUDIO
    TITLE "9:cjc026_05645"
    INDEX 01 00:13:02
  TRACK 23 AUDIO
    TITLE "0:"
    INDEX 01 00:13:71
  TRACK 24 AUDIO
    TITLE "8:cjc026_05646"
    INDEX 01 00:14:21
  TRACK 25 AUDIO
    TITLE "0:"
    INDEX 01 00:15:23
  TRACK 26 AUDIO
    TITLE "9:cjc026_05647"
    INDEX 01 00:15:48
  TRACK 27 AUDIO
    TITLE "0:"
    INDEX 01 00:16:38
  TRACK 28 AUDIO
    TITLE "8:cjc026_05648"
    INDEX 01 00:16:63
  TRACK 29 AUDIO
    TITLE "0:"
    INDEX 01 00:17:65
  TRACK 30 AUDIO
    TITLE "9:cjc026_05649"
    INDEX 01 00:18:17
  TRACK 31 AUDIO
    TITLE "0:"
    INDEX 01 00:19:13
  TRACK 32 AUDIO
    TITLE "8:cjc026_05650"
    INDEX 01 00:19:40
  TRACK 33 AUDIO
    TITLE "0:"
    INDEX 01 00:20:47
  TRACK 34 AUDIO
    TITLE "9:cjc026_05651"
    INDEX 01 00:20:73
  TRACK 35 AUDIO
    TITLE "0:"
    INDEX 01 00:21:64
  TRACK 36 AUDIO
    TITLE "8:cjc026_05652"
    INDEX 01 00:22:17
  TRACK 37 AUDIO
    TITLE "0:"
    INDEX 01 00:23:24
  TRACK 38 AUDIO
    TITLE "9:cjc026_05653"
    INDEX 01 00:23:50
  TRACK 39 AUDIO
    TITLE "0:"
    INDEX 01 00:24:49
  TRACK 40 AUDIO
    TITLE "8:cjc026_05654"
    INDEX 01 00:25:01
  TRACK 41 AUDIO
    TITLE "0:"
    INDEX 01 00:25:70
  TRACK 42 AUDIO
    TITLE "9:cjc026_05655"
    INDEX 01 00:26:20
  TRACK 43 AUDIO
    TITLE "0:"
    INDEX 01 00:27:12
  TRACK 44 AUDIO
    TITLE "8:cjc026_05656"
    INDEX 01 00:27:38
  TRACK 45 AUDIO
    TITLE "0:"
    INDEX 01 00:28:39
  TRACK 46 AUDIO
    TITLE "9:cjc026_05657"
    INDEX 01 00:28:66
  TRACK 47 AUDIO
    TITLE "0:"
    INDEX 01 00:29:70
  TRACK 48 AUDIO
    TITLE "8:cjc026_05658"
    INDEX 01 00:30:22
  TRACK 49 AUDIO
    TITLE "0:"
    INDEX 01 00:31:31
  TRACK 50 AUDIO
    TITLE "9:cjc026_05659"
    INDEX 01 00:31:57
  TRACK 51 AUDIO
    TITLE "0:"
    INDEX 01 00:32:58
  TRACK 52 AUDIO
    TITLE "8:cjc026_05660"
    INDEX 01 00:33:11
  TRACK 53 AUDIO
    TITLE "0:"
    INDEX 01 00:34:30
  TRACK 54 AUDIO
    TITLE "9:cjc026_05661"
    INDEX 01 00:34:57
  TRACK 55 AUDIO
    TITLE "0:"
    INDEX 01 00:35:61
  TRACK 56 AUDIO
    TITLE "8:cjc026_05662"
    INDEX 01 00:36:11
  TRACK 57 AUDIO
    TITLE "0:"
    INDEX 01 00:37:08
  TRACK 58 AUDIO
    TITLE "9:cjc026_05663"
    INDEX 01 00:37:36
  TRACK 59 AUDIO
    TITLE "0:"
    INDEX 01 00:38:33
  TRACK 60 AUDIO
    TITLE "8:cjc026_05664"
    INDEX 01 00:38:61
  TRACK 61 AUDIO
    TITLE "0:"
    INDEX 01 00:39:56
